<?xml version="1.0" encoding="UTF-8"?>
<svg id="Capa_1" data-name="Capa 1" xmlns="http://www.w3.org/2000/svg" xmlns:xlink="http://www.w3.org/1999/xlink" viewBox="0 0 477.4 474.88">
  <defs>
    <style>
      .cls-1 {
        fill: url(#Degradado_sin_nombre_106);
      }

      .cls-1, .cls-2, .cls-3 {
        stroke-miterlimit: 10;
      }

      .cls-1, .cls-3 {
        stroke: #93d4f4;
        stroke-width: 2.83px;
      }

      .cls-4 {
        fill: #1d1d1b;
      }

      .cls-5, .cls-2 {
        fill: #fff;
      }

      .cls-6 {
        fill: url(#Degradado_sin_nombre_103);
      }

      .cls-7 {
        fill: url(#Degradado_sin_nombre_104);
      }

      .cls-8 {
        fill: url(#Degradado_sin_nombre_101);
      }

      .cls-9 {
        fill: url(#Degradado_sin_nombre_105);
      }

      .cls-2 {
        stroke: #255c7c;
        stroke-width: 5.67px;
      }

      .cls-3 {
        fill: url(#Degradado_sin_nombre_36);
      }

      .cls-10 {
        fill: #255c7c;
      }
    </style>
    <linearGradient id="Degradado_sin_nombre_101" data-name="Degradado sin nombre 101" x1="-51.91" y1="-210.24" x2="413.37" y2="952.46" gradientUnits="userSpaceOnUse">
      <stop offset="0" stop-color="#fdf4a7"/>
      <stop offset=".15" stop-color="#ffe966"/>
      <stop offset=".16" stop-color="#ffe150"/>
      <stop offset=".17" stop-color="#ffdb3f"/>
      <stop offset=".18" stop-color="#ffd733"/>
      <stop offset=".19" stop-color="#ffd42c"/>
      <stop offset=".24" stop-color="#ffd42b"/>
      <stop offset=".51" stop-color="#f5b806"/>
      <stop offset=".75" stop-color="#d89602"/>
      <stop offset=".9" stop-color="#b87513"/>
    </linearGradient>
    <linearGradient id="Degradado_sin_nombre_104" data-name="Degradado sin nombre 104" x1="243.35" y1="-330.73" x2="710.34" y2="836.23" gradientUnits="userSpaceOnUse">
      <stop offset="0" stop-color="#fdf4a7"/>
      <stop offset=".15" stop-color="#ffe966"/>
      <stop offset=".33" stop-color="#ffd42b"/>
      <stop offset=".51" stop-color="#f5b806"/>
      <stop offset=".75" stop-color="#d89602"/>
      <stop offset=".9" stop-color="#b87513"/>
    </linearGradient>
    <linearGradient id="Degradado_sin_nombre_103" data-name="Degradado sin nombre 103" x1="-155.01" y1="-174.99" x2="311.9" y2="991.79" gradientUnits="userSpaceOnUse">
      <stop offset="0" stop-color="#fdf4a7"/>
      <stop offset=".15" stop-color="#ffe966"/>
      <stop offset=".44" stop-color="#ffd42b"/>
      <stop offset=".63" stop-color="#f5b806"/>
      <stop offset=".75" stop-color="#d89602"/>
      <stop offset=".9" stop-color="#b87513"/>
    </linearGradient>
    <linearGradient id="Degradado_sin_nombre_105" data-name="Degradado sin nombre 105" x1="149.43" y1="-244.98" x2="726.09" y2="1196.05" gradientUnits="userSpaceOnUse">
      <stop offset="0" stop-color="#fdf4a7"/>
      <stop offset=".15" stop-color="#ffe966"/>
      <stop offset=".35" stop-color="#ffd42b"/>
      <stop offset=".45" stop-color="#fdce24"/>
      <stop offset=".6" stop-color="#f8c011"/>
      <stop offset=".67" stop-color="#f5b806"/>
      <stop offset=".75" stop-color="#d89602"/>
      <stop offset=".9" stop-color="#b87513"/>
    </linearGradient>
    <radialGradient id="Degradado_sin_nombre_106" data-name="Degradado sin nombre 106" cx="235.86" cy="-125.96" fx="235.86" fy="-125.96" r="582.22" gradientUnits="userSpaceOnUse">
      <stop offset="0" stop-color="#4384c5"/>
      <stop offset=".15" stop-color="#6bbae9"/>
      <stop offset=".29" stop-color="#4384c5"/>
      <stop offset=".55" stop-color="#305ba7"/>
      <stop offset=".7" stop-color="#254395"/>
      <stop offset=".85" stop-color="#2a3189"/>
      <stop offset="1" stop-color="#3b348b"/>
    </radialGradient>
    <radialGradient id="Degradado_sin_nombre_36" data-name="Degradado sin nombre 36" cx="235.86" cy="-125.96" fx="235.86" fy="-125.96" r="582.22" gradientUnits="userSpaceOnUse">
      <stop offset="0" stop-color="#a1d9f6"/>
      <stop offset=".15" stop-color="#6bbae9"/>
      <stop offset=".35" stop-color="#4384c5"/>
      <stop offset=".55" stop-color="#305ba7"/>
      <stop offset=".7" stop-color="#254395"/>
      <stop offset=".85" stop-color="#2a3189"/>
      <stop offset="1" stop-color="#3b348b"/>
    </radialGradient>
  </defs>
  <g>
    <path class="cls-5" d="M238.91,299.78c-29.31,0-53.15-23.84-53.15-53.15s23.84-53.15,53.15-53.15,53.15,23.84,53.15,53.15-23.84,53.15-53.15,53.15Z"/>
    <path class="cls-10" d="M238.91,199.16c26.22,0,47.48,21.26,47.48,47.48s-21.26,47.48-47.48,47.48-47.48-21.26-47.48-47.48,21.26-47.48,47.48-47.48M238.91,187.82c-32.43,0-58.82,26.38-58.82,58.82s26.38,58.82,58.82,58.82,58.82-26.38,58.82-58.82-26.38-58.82-58.82-58.82h0Z"/>
  </g>
  <g>
    <g>
      <path class="cls-8" d="M130.21,145.74c-19.4,0-108.13-69.54-111.89-72.5l-.05-.04-.04-.05c-.25-.35-25.04-35.82-13.02-60.3,2.43-4.95,7.71-7.45,15.69-7.45,19.57,0,49.55,15.24,49.85,15.39l.15.08.06.16c.15.44,15.88,44.47,54.96,103.4,6.84,10.32,9.42,16.74,7.87,19.62-.6,1.13-1.81,1.7-3.57,1.7h0Z"/>
      <path class="cls-4" d="M20.89,5.82c19.69,0,49.66,15.34,49.66,15.34,0,0,15.44,43.83,55,103.49,9.85,14.86,10.16,20.65,4.65,20.65-19.48,0-111.63-72.41-111.63-72.41,0,0-25.04-35.33-12.99-59.87,2.59-5.27,8.29-7.22,15.3-7.22M20.89,4.97c-8.16,0-13.56,2.59-16.07,7.69C-.21,22.92.46,36.69,6.77,52.49c4.74,11.86,11.04,20.82,11.11,20.91l.07.1.1.08c3.77,2.96,92.61,72.59,112.16,72.59,1.94,0,3.26-.65,3.95-1.92,1.65-3.07-.86-9.44-7.9-20.05-39.04-58.88-54.76-102.87-54.91-103.31l-.11-.32-.3-.15c-1.23-.63-30.37-15.44-50.04-15.44h0Z"/>
    </g>
    <g>
      <path class="cls-7" d="M345.07,147.23c-1.8,0-3.02-.58-3.64-1.73-1.58-2.94,1.05-9.49,8.04-20.02,39.91-60.2,55.98-105.17,56.14-105.62l.06-.16.15-.08c.31-.16,30.93-15.72,50.91-15.72,8.15,0,13.53,2.56,16.01,7.61,12.28,25-13.04,61.22-13.3,61.58l-.04.05-.05.04c-3.85,3.02-94.47,74.05-114.29,74.05h0Z"/>
      <path class="cls-4" d="M456.73,4.33c7.16,0,12.99,1.99,15.63,7.37,12.31,25.06-13.27,61.15-13.27,61.15,0,0-94.14,73.96-114.02,73.96-5.62,0-5.31-5.92,4.75-21.1,40.41-60.95,56.18-105.71,56.18-105.71,0,0,30.61-15.67,50.72-15.67M456.73,3.48c-20.09,0-49.85,15.12-51.11,15.76l-.3.15-.11.32c-.16.45-16.21,45.38-56.09,105.52-7.18,10.83-9.74,17.33-8.06,20.46.7,1.3,2.05,1.95,4.01,1.95,19.95,0,110.7-71.11,114.55-74.14l.1-.08.07-.1c.06-.09,6.51-9.25,11.34-21.35,6.44-16.13,7.13-30.19,1.99-40.66-2.56-5.21-8.07-7.85-16.4-7.85h0Z"/>
    </g>
    <g>
      <path class="cls-6" d="M27.39,473.37c-7.36,0-12.33-2.35-14.78-6.98-12.72-24.05,10.95-60.17,11.19-60.53l.03-.05.05-.04c3.7-3.09,90.8-75.65,109.67-75.65,1.65,0,2.8.55,3.4,1.63,1.58,2.85-.8,9.31-7.29,19.76-37.21,59.95-51.59,104.33-51.73,104.77l-.05.16-.15.08c-.31.17-30.84,16.85-50.35,16.85h0Z"/>
      <path class="cls-4" d="M133.56,330.55c5.26,0,5,5.84-4.25,20.74-37.68,60.69-51.77,104.86-51.77,104.86,0,0-30.53,16.8-50.14,16.8-6.5,0-11.8-1.85-14.4-6.76-12.75-24.11,11.17-60.1,11.17-60.1,0,0,90.46-75.55,109.4-75.55M133.56,329.7c-19.03,0-106.24,72.65-109.95,75.75l-.09.08-.07.1c-.06.09-6.09,9.22-10.46,21.19-5.82,15.95-6.08,29.7-.76,39.78,2.53,4.78,7.63,7.21,15.15,7.21,19.61,0,49.3-16.22,50.55-16.91l.3-.16.1-.32c.14-.44,14.5-44.78,51.68-104.67,6.67-10.74,8.99-17.16,7.3-20.19-.68-1.23-1.95-1.85-3.77-1.85h0Z"/>
    </g>
    <g>
      <path class="cls-9" d="M447.5,474.38c-19.06,0-49.13-16.85-49.43-17.02l-.15-.08-.05-.16c-.13-.43-13.72-43.99-49.48-103.02-6.23-10.28-8.49-16.62-6.93-19.4.59-1.05,1.69-1.58,3.28-1.58,18.32,0,102.95,72.09,106.54,75.16l.05.04.03.05c.23.36,23,35.93,10.3,59.33-2.41,4.43-7.17,6.68-14.17,6.68h0Z"/>
      <path class="cls-4" d="M344.74,333.54c18.37,0,106.27,75.06,106.27,75.06,0,0,23.01,35.45,10.28,58.9-2.54,4.69-7.6,6.46-13.8,6.46-19.17,0-49.23-16.97-49.23-16.97,0,0-13.31-43.35-49.52-103.11-8.85-14.61-9.08-20.33-4.01-20.33M344.74,332.69c-1.75,0-2.98.6-3.65,1.8-1.67,2.96.54,9.26,6.94,19.83,35.72,58.97,49.3,102.49,49.43,102.92l.1.32.3.17c1.23.7,30.47,17.08,49.64,17.08,7.17,0,12.06-2.32,14.54-6.9,5.32-9.8,5.21-23.26-.31-38.93-4.15-11.75-9.94-20.75-10-20.84l-.07-.1-.09-.08c-3.6-3.07-88.35-75.26-106.82-75.26h0Z"/>
    </g>
  </g>
  <circle class="cls-2" cx="238.91" cy="246.64" r="31.96"/>
  <g>
    <path class="cls-1" d="M372.77,63.8c-34.73-25.47-76.99-41.27-122.82-43.47v39.37c39.46,2.3,75.64,16.8,104.82,39.8,7.61-13.95,13.56-26.05,18-35.69Z"/>
    <path class="cls-3" d="M323.96,237.15h88.31c-1.93-35.88-14.76-68.85-35.22-95.69-40.54,28.07-80.98,51.2-53.57,9.86,9.4-14.18,17.54-27.52,24.53-39.74-27.14-21.95-61.02-35.88-98.05-38.21v87.43c39.15,5.25,69.97,36.82,74.01,76.34Z"/>
    <path class="cls-3" d="M458.33,237.15c.77,0,1.52.12,2.24.29v-.29h4.75c-1.96-47.52-18.55-91.25-45.39-126.83-8.93,6.73-20.05,14.98-31.7,23.28,22.03,29.06,35.79,64.75,37.72,103.55h32.38Z"/>
    <path class="cls-3" d="M152.75,151.32c27.18,40.99-12.35,18.6-52.53-9.14-20.15,26.71-32.76,59.42-34.67,94.97h87.34c4.07-39.85,35.36-71.61,74.97-76.47v-87.31c-37.53,2.36-71.83,16.62-99.14,39.08,6.88,11.98,14.85,25.02,24.03,38.86Z"/>
    <path class="cls-3" d="M121.95,100.38c29.36-23.51,65.96-38.36,105.92-40.69V20.32c-46.35,2.23-89.05,18.36-124.01,44.34,4.49,9.7,10.47,21.81,18.09,35.72Z"/>
    <path class="cls-3" d="M20.88,237.15h30.98c1.92-38.48,15.45-73.89,37.16-102.82-11.59-8.23-22.71-16.47-31.72-23.25-26.5,35.44-42.86,78.9-44.81,126.07h8.38Z"/>
    <path class="cls-3" d="M323.8,256.12c-4.57,38.93-35.12,69.89-73.85,75.08v88.7c39.41-2.47,75.25-18.09,103.2-42.53-8.05-14.59-17.86-31.07-29.67-48.89-28.86-43.53,17.49-15.59,59.98,14.34,16.72-25.07,27.09-54.74,28.81-86.71h-88.47Z"/>
    <path class="cls-3" d="M249.95,433.58v39.37c47.83-2.3,91.77-19.41,127.32-46.86-3.82-8.85-9.58-21.31-17.5-36.41-29.99,25.37-68.07,41.47-109.82,43.9Z"/>
    <path class="cls-3" d="M460.56,255.83c-.72.18-1.46.29-2.24.29h-32.38c-1.74,34.93-13.05,67.33-31.36,94.65,12.16,8.78,23.37,17.2,31.6,23.47,23.14-33.9,37.32-74.41,39.12-118.11h-4.74v-.29Z"/>
    <path class="cls-3" d="M153.05,256.12h-87.5c1.7,31.65,11.88,61.03,28.31,85.94,42.19-29.64,87.51-56.73,58.9-13.58-11.56,17.43-21.19,33.59-29.15,47.94,28.09,24.98,64.35,40.97,104.26,43.47v-88.58c-39.19-4.8-70.21-35.95-74.81-75.2Z"/>
    <path class="cls-3" d="M99.35,425.17c35.76,27.99,80.15,45.46,128.51,47.78v-39.37c-42.26-2.46-80.76-18.92-110.92-44.83-7.9,15-13.69,27.45-17.59,36.42Z"/>
    <path class="cls-3" d="M20.88,256.12h-8.37c1.79,43.36,15.75,83.58,38.57,117.32,8.37-6.37,19.58-14.76,31.64-23.45-18.01-27.16-29.13-59.27-30.85-93.87h-30.98Z"/>
  </g>
</svg>