<?xml version="1.0" encoding="utf-8"?>
<!-- Generator: Adobe Illustrator 25.4.1, SVG Export Plug-In . SVG Version: 6.00 Build 0)  -->
<svg version="1.1" id="Capa_1" xmlns="http://www.w3.org/2000/svg" xmlns:xlink="http://www.w3.org/1999/xlink" x="0px" y="0px"
	 viewBox="0 0 555.66 224.52" style="enable-background:new 0 0 555.66 224.52;" xml:space="preserve">
<g>
	<g>
		<path d="M251.13,101.63c-2.85,0-4.27-1.4-4.27-4.21V37.95c0-2.8,1.42-4.21,4.27-4.21h26.55c5.39,0,9.54,1.4,12.44,4.21
			c2.9,2.8,4.35,6.81,4.35,12.02v2.7c0,4.51-1.44,7.99-4.32,10.46c5.39,2.97,8.09,8.39,8.09,16.27v3.4c0,6.14-1.65,10.81-4.96,14.02
			c-3.31,3.2-8.06,4.81-14.27,4.81H251.13z M255.41,60.68h24.11c2.48,0,4.16-0.75,5.06-2.25c0.9-1.5,1.35-3.42,1.35-5.76v-2.7
			c0-2.9-0.61-4.93-1.83-6.08c-1.22-1.15-3.36-1.73-6.41-1.73h-22.28V60.68z M255.41,93.22h23.6c3.83,0,6.57-0.81,8.21-2.43
			c1.64-1.62,2.47-4.28,2.47-7.99v-3.4c0-3.7-0.8-6.35-2.39-7.94c-1.59-1.58-4.36-2.38-8.29-2.38h-23.6V93.22z"/>
		<path d="M319.6,101.63c-2.85,0-4.27-1.4-4.27-4.21V37.95c0-2.8,1.42-4.21,4.27-4.21h36.52c2.85,0,4.27,1.4,4.27,4.21
			c0,2.8-1.42,4.21-4.27,4.21h-32.25v21.03h20.24c2.85,0,4.27,1.4,4.27,4.21c0,2.8-1.42,4.21-4.27,4.21h-20.24v21.63h32.25
			c2.85,0,4.27,1.4,4.27,4.21c0,2.8-1.42,4.21-4.27,4.21H319.6z"/>
		<path d="M373.41,101.23c-2.71-1.03-3.53-2.87-2.44-5.51l24.21-58.68c1.02-2.2,2.61-3.3,4.78-3.3h0.2c2.2,0.1,3.7,1.2,4.48,3.3
			l24.62,58.68c1.08,2.64,0.31,4.47-2.34,5.51c-2.68,1.03-4.54,0.27-5.6-2.3l-5.49-13.12h-31.69l-5.24,13.12
			C377.85,101.53,376.02,102.3,373.41,101.23z M387.5,77.4h24.82l-12.67-30.34L387.5,77.4z"/>
		<path d="M458.61,101.63c-5.8,0-10.32-1.15-13.56-3.45c-3.24-2.3-5.26-5.86-6.08-10.66c-0.14-1.47,0.17-2.57,0.92-3.3
			c0.75-0.73,1.83-1.1,3.26-1.1c1.42,0,2.47,0.33,3.13,1c0.66,0.67,1.11,1.7,1.35,3.1c0.51,2.3,1.6,3.88,3.28,4.73
			c1.68,0.85,4.25,1.28,7.71,1.28h14.65c4.37,0,7.35-0.78,8.93-2.33c1.58-1.55,2.36-4.45,2.36-8.69c0-4.31-0.81-7.25-2.44-8.84
			c-1.63-1.58-4.58-2.38-8.85-2.38h-12.61c-6.41,0-11.16-1.54-14.27-4.63c-3.1-3.09-4.65-7.78-4.65-14.09
			c0-6.27,1.53-10.93,4.6-13.97c3.07-3.04,7.81-4.56,14.22-4.56h12.11c5.39,0,9.62,1.09,12.69,3.25c3.07,2.17,5.01,5.49,5.82,9.96
			c0.2,1.44-0.07,2.53-0.81,3.28c-0.75,0.75-1.87,1.13-3.36,1.13c-1.36,0-2.37-0.35-3.05-1.05c-0.68-0.7-1.12-1.72-1.32-3.05
			c-0.54-1.97-1.58-3.31-3.1-4.03c-1.53-0.72-3.81-1.08-6.87-1.08h-12.11c-4.07,0-6.8,0.71-8.19,2.13
			c-1.39,1.42-2.09,4.08-2.09,7.99c0,3.94,0.71,6.64,2.14,8.11c1.42,1.47,4.17,2.2,8.24,2.2h12.61c6.68,0,11.66,1.6,14.93,4.81
			c3.27,3.2,4.91,8.14,4.91,14.82c0,6.64-1.63,11.54-4.88,14.69c-3.26,3.15-8.24,4.73-14.95,4.73H458.61z"/>
		<path d="M527.38,101.63c-1.42,0-2.49-0.35-3.2-1.05s-1.07-1.75-1.07-3.15V42.25h-19.74c-1.42,0-2.49-0.35-3.2-1.05
			s-1.07-1.75-1.07-3.15c0-1.4,0.36-2.45,1.07-3.15c0.71-0.7,1.78-1.05,3.2-1.05h48.02c1.42,0,2.49,0.35,3.2,1.05
			c0.71,0.7,1.07,1.75,1.07,3.15c0,1.4-0.36,2.45-1.07,3.15c-0.71,0.7-1.78,1.05-3.2,1.05h-19.74v55.17c0,1.34-0.36,2.37-1.09,3.1
			C529.83,101.26,528.77,101.63,527.38,101.63z"/>
	</g>
	<g>
		<path d="M269.83,190.95c-1.06,0-1.78-0.43-2.16-1.3l-30.03-59.08c-0.46-0.9-0.39-1.63,0.2-2.18c0.59-0.55,1.24-0.83,1.96-0.83
			c1.06,0,1.78,0.43,2.16,1.3l29.06,57.23h-1.71l29.06-57.23c0.38-0.87,1.1-1.3,2.16-1.3c0.87,0,1.56,0.28,2.08,0.83
			c0.51,0.55,0.54,1.28,0.09,2.18l-30.03,59.08c-0.38,0.87-1.1,1.3-2.16,1.3H269.83z"/>
		<path d="M304.52,190.75c-1.4-0.6-1.82-1.54-1.25-2.8l28.55-58.78c0.46-1.07,1.36-1.6,2.73-1.6h0.34c1.25,0,2.16,0.53,2.73,1.6
			l28.44,58.78c0.64,1.27,0.23,2.2-1.25,2.8c-1.44,0.53-2.46,0.17-3.07-1.1l-8.02-16.62h-37.88l-8.13,16.62
			C307.1,190.92,306.04,191.28,304.52,190.75z M317.89,168.82h33.78l-16.78-34.65L317.89,168.82z"/>
		<path d="M401.43,190.95c-8.08,0-13.94-1.61-17.6-4.83c-3.66-3.22-5.49-8.39-5.49-15.5v-40.95c0-0.6,0.23-1.1,0.68-1.5
			c0.45-0.4,1.02-0.6,1.71-0.6c0.68,0,1.25,0.2,1.71,0.6c0.46,0.4,0.68,0.9,0.68,1.5v40.95c0,3.94,0.6,7.08,1.79,9.44
			c1.19,2.35,3.13,4.05,5.8,5.11c2.67,1.05,6.25,1.58,10.72,1.58h13.65c4.47,0,8.05-0.53,10.72-1.58c2.67-1.05,4.61-2.75,5.8-5.11
			s1.79-5.5,1.79-9.44v-40.95c0-0.6,0.23-1.1,0.68-1.5c0.46-0.4,1.02-0.6,1.71-0.6c0.68,0,1.25,0.2,1.71,0.6
			c0.46,0.4,0.68,0.9,0.68,1.5v40.95c0,7.11-1.83,12.27-5.49,15.5c-3.66,3.22-9.53,4.83-17.6,4.83H401.43z"/>
		<path d="M460.46,190.95c-1.59,0-2.39-0.7-2.39-2.1v-59.18c0-1.4,0.8-2.1,2.39-2.1c1.59,0,2.39,0.7,2.39,2.1v57.08h35.6
			c1.59,0,2.39,0.7,2.39,2.1s-0.8,2.1-2.39,2.1H460.46z"/>
		<path d="M524.27,191.05c-0.68,0-1.25-0.2-1.71-0.6c-0.46-0.4-0.68-0.9-0.68-1.5v-57.28h-24.91c-0.68,0-1.25-0.2-1.71-0.6
			c-0.46-0.4-0.68-0.9-0.68-1.5s0.23-1.1,0.68-1.5c0.46-0.4,1.02-0.6,1.71-0.6h54.6c0.68,0,1.25,0.2,1.71,0.6
			c0.46,0.4,0.68,0.9,0.68,1.5s-0.23,1.1-0.68,1.5c-0.46,0.4-1.02,0.6-1.71,0.6h-24.91v57.28c0,0.6-0.23,1.1-0.68,1.5
			C525.52,190.85,524.95,191.05,524.27,191.05z"/>
	</g>
</g>
<g>
	<g>
		<path d="M16.92,174.17c25.92,0.04,50.75,4.96,73.63,17.76c2.52,1.41,5.04,2.88,7.38,4.58c1.64,1.19,3.28,1.59,5.24,1.55
			c3.98-0.1,8.17,0.74,11.89-0.25c3.68-0.98,6.89-3.75,10.32-5.69c14.91-8.46,30.98-13.52,47.85-16.2
			c12.85-2.04,25.77-2.7,38.76-1.75c3.24,0.24,4.28,1.28,4.3,4.44c0.01,2.17,0.02,4.35,0,6.52c-0.03,3.18-1.23,4.3-4.43,4.11
			c-15.45-0.93-30.66,0.62-45.64,4.48c-13.47,3.47-26.22,8.68-38.12,15.92c-1.76,1.07-3.02,2.38-3.77,4.27
			c-0.48,1.21-1.1,2.36-1.66,3.54c-2.22,4.65-5.95,6.98-11.05,7.05c-3.03,0.04-6.09,0.08-9.1-0.25c-4.04-0.45-7.24-2.7-8.62-6.45
			c-1.96-5.35-5.71-8.45-10.56-11.04c-24.56-13.11-50.7-18.91-78.47-17.53C1.12,189.4,0,188.4,0,184.67c0-2.03-0.01-4.06,0.01-6.08
			c0.03-3.06,1.08-4.31,4.1-4.39C8.38,174.09,12.65,174.17,16.92,174.17z"/>
		<path d="M111.28,192.19c0-6.69-0.04-12.55,0.05-18.4c0.01-0.67,0.61-1.43,1.12-1.97c7.36-7.88,16.42-13.2,26.28-17.27
			c16.55-6.83,33.91-10.12,51.65-11.66c4.47-0.39,8.95-0.64,13.44-0.79c3.45-0.12,5.18,2.68,3.57,5.72
			c-0.25,0.47-1.28,0.67-1.97,0.75c-8.55,0.9-17.11,1.7-25.66,2.69c-1.15,0.13-2.54,0.9-3.2,1.81c-0.5,0.7-0.44,2.47,0.13,3.09
			c0.73,0.8,2.25,1.39,3.34,1.27c5.46-0.59,10.88-1.54,16.34-2.17c3.13-0.36,6.31-0.33,9.79-0.5c-0.8,4.21-1.48,8.04-2.33,11.83
			c-0.1,0.43-1.18,0.86-1.83,0.89c-6.86,0.39-13.76,0.38-20.59,1.09c-23.5,2.43-45.61,9.09-65.61,22.04
			C114.64,191.36,113.12,191.57,111.28,192.19z M165.29,157.12c-0.19,1.67,1.16,3.26,2.88,3.4c1.97,0.16,3.88-1.26,4.1-3.04
			c0.19-1.61-1.01-3.12-2.66-3.34C167.51,153.87,165.5,155.26,165.29,157.12z"/>
		<path d="M10.12,154.64c5.07,0.36,9.76,0.58,14.42,1.07c3.81,0.4,7.59,1.11,11.37,1.72c2.37,0.38,3.99-0.5,4.34-2.44
			c0.31-1.73-0.9-3.38-3.17-3.65c-8.47-1-16.95-1.91-25.44-2.71c-2.85-0.27-3.09-0.27-3.2-3c-0.08-2.15,1.17-3.56,3.46-3.53
			c3.55,0.05,7.1,0.17,10.63,0.45c13.08,1.04,26.03,2.91,38.7,6.43c14.12,3.93,27.48,9.4,38.85,19.05
			c3.57,3.03,5.58,6.19,5.03,11.08c-0.45,4.06-0.09,8.21-0.09,12.97c-1.69-0.5-3.17-0.6-4.25-1.3
			C85.14,180.59,68,174.31,49.78,170.74c-11.62-2.28-23.36-3.29-35.18-3.19c-1.68,0.01-2.26-0.57-2.51-2.12
			C11.54,162.02,10.85,158.63,10.12,154.64z M51.02,157.44c-0.02-1.84-1.69-3.29-3.82-3.31c-1.81-0.02-3.21,1.32-3.2,3.05
			c0.02,1.8,1.74,3.33,3.81,3.37C49.52,160.58,51.04,159.1,51.02,157.44z"/>
	</g>
	<g>
		<path d="M58.69,3.58c1.31,0.56,2.35,1.6,2.93,2.9c2.13,4.77,8.24,17.7,17.77,31.97c12.63,18.92-27.21-13.31-32.82-17.89
			c-0.46-0.37-0.85-0.81-1.18-1.31c-1.64-2.53-6.38-10.69-3.56-16.77C43.99-2.16,54.23,1.65,58.69,3.58z"/>
		<path d="M157.94,3.58c-1.31,0.56-2.35,1.6-2.93,2.9c-2.13,4.77-8.24,17.7-17.77,31.97c-12.63,18.92,27.21-13.31,32.82-17.89
			c0.46-0.37,0.85-0.81,1.18-1.31c1.64-2.53,6.38-10.69,3.56-16.77C172.65-2.16,162.41,1.65,157.94,3.58z"/>
		<path d="M58.71,131.46c1.31-0.56,2.35-1.6,2.93-2.9c2.13-4.77,8.24-17.7,17.77-31.97c12.63-18.92-27.21,13.31-32.82,17.89
			c-0.46,0.37-0.85,0.81-1.18,1.31c-1.64,2.53-6.38,10.69-3.56,16.77C44.01,137.2,54.25,133.39,58.71,131.46z"/>
		<path d="M157.96,131.46c-1.31-0.56-2.35-1.6-2.93-2.9c-2.13-4.77-8.24-17.7-17.77-31.97c-12.63-18.92,27.21,13.31,32.82,17.89
			c0.46,0.37,0.85,0.81,1.18,1.31c1.64,2.53,6.38,10.69,3.56,16.77C172.67,137.2,162.43,133.39,157.96,131.46z"/>
		<g>
			<g>
				<g>
					<path d="M142.36,26.42c2.23-4.1,3.98-7.65,5.29-10.48c-10.2-7.48-22.61-12.12-36.06-12.76v11.56
						C123.17,15.41,133.79,19.67,142.36,26.42z"/>
					<path d="M133.17,41.64c2.76-4.16,5.15-8.08,7.2-11.67c-7.97-6.44-17.92-10.54-28.79-11.22v25.67
						c11.5,1.54,20.54,10.81,21.73,22.42h25.93c-0.57-10.53-4.33-20.22-10.34-28.1C137,46.99,125.12,53.78,133.17,41.64z"/>
					<path d="M161.49,29.6c-2.62,1.98-5.89,4.4-9.31,6.84c6.47,8.53,10.51,19.01,11.08,30.4h9.51c0.23,0,0.44,0.03,0.66,0.09v-0.09
						h1.4C174.24,52.89,169.37,40.05,161.49,29.6z"/>
				</g>
				<g>
					<path d="M83.08,66.85c1.2-11.7,10.38-21.03,22.01-22.45V18.76c-11.02,0.69-21.09,4.88-29.11,11.48
						c2.02,3.52,4.36,7.35,7.06,11.41c7.98,12.04-3.63,5.46-15.42-2.68C61.7,46.8,58,56.41,57.44,66.85H83.08z"/>
					<path d="M105.1,14.74V3.18C91.49,3.83,78.95,8.57,68.69,16.2C70,19.05,71.76,22.6,74,26.69
						C82.62,19.78,93.36,15.42,105.1,14.74z"/>
					<path d="M64.33,36.66c-3.4-2.42-6.67-4.83-9.31-6.83c-7.78,10.41-12.59,23.17-13.16,37.02h2.05h0.41h9.1
						C53.98,55.55,57.96,45.15,64.33,36.66z"/>
				</g>
			</g>
			<g>
				<g>
					<path d="M133.27,72.41c-1.34,11.43-10.31,20.52-21.68,22.04v26.04c11.57-0.73,22.1-5.31,30.3-12.49
						c-2.37-4.28-5.24-9.12-8.71-14.35c-8.47-12.78,5.14-4.58,17.61,4.21c4.91-7.36,7.95-16.07,8.46-25.46H133.27z"/>
					<path d="M111.58,124.52v11.56c14.04-0.67,26.94-5.7,37.38-13.76c-1.12-2.6-2.81-6.26-5.14-10.69
						C135.02,119.08,123.84,123.81,111.58,124.52z"/>
					<path d="M173.42,72.41v-0.09c-0.21,0.05-0.43,0.09-0.66,0.09h-9.51c-0.51,10.25-3.83,19.77-9.21,27.79
						c3.57,2.58,6.86,5.05,9.28,6.89c6.8-9.95,10.96-21.85,11.49-34.68H173.42z"/>
				</g>
				<g>
					<path d="M74.48,107.74c8.25,7.33,18.89,12.03,30.61,12.76V94.5c-11.51-1.41-20.62-10.56-21.97-22.08H57.44
						c0.5,9.29,3.49,17.92,8.31,25.24c12.39-8.7,25.7-16.66,17.29-3.99C79.65,98.78,76.82,103.52,74.48,107.74z"/>
					<path d="M72.53,111.36c-2.32,4.4-4.02,8.06-5.17,10.69c10.5,8.22,23.53,13.35,37.73,14.03v-11.56
						C92.69,123.8,81.38,118.97,72.53,111.36z"/>
					<path d="M53.42,72.41h-9.1h-0.41h-2.05c0.52,12.73,4.62,24.54,11.32,34.45c2.46-1.87,5.75-4.33,9.29-6.89
						C57.19,92,53.93,82.57,53.42,72.41z"/>
				</g>
			</g>
		</g>
		<circle cx="108.34" cy="69.63" r="12.44"/>
	</g>
</g>
</svg>
