<?xml version="1.0" encoding="utf-8"?>
<!-- Generator: Adobe Illustrator 25.4.1, SVG Export Plug-In . SVG Version: 6.00 Build 0)  -->
<svg version="1.1" id="Capa_1" xmlns="http://www.w3.org/2000/svg" xmlns:xlink="http://www.w3.org/1999/xlink" x="0px" y="0px"
	 viewBox="0 0 419.72 436.52" style="enable-background:new 0 0 419.72 436.52;" xml:space="preserve" fill="white" stroke="white">
<g>
	<g>
		<path d="M32.06,338.61c50.41,0.08,98.68,9.64,143.16,34.53c4.91,2.75,9.8,5.6,14.34,8.9c3.18,2.31,6.37,3.1,10.18,3.01
			c7.74-0.19,15.89,1.44,23.13-0.48c7.16-1.9,13.39-7.28,20.07-11.07c28.99-16.46,60.24-26.29,93.04-31.5
			c24.99-3.97,50.11-5.24,75.37-3.39c6.3,0.46,8.32,2.48,8.36,8.64c0.03,4.23,0.04,8.45-0.01,12.68c-0.07,6.19-2.4,8.36-8.62,7.99
			c-30.04-1.81-59.62,1.21-88.74,8.71c-26.19,6.75-50.98,16.87-74.13,30.95c-3.42,2.08-5.86,4.63-7.32,8.31
			c-0.93,2.35-2.13,4.59-3.22,6.88c-4.31,9.03-11.57,13.57-21.49,13.71c-5.9,0.08-11.85,0.16-17.7-0.49
			c-7.86-0.87-14.08-5.25-16.76-12.55c-3.81-10.4-11.1-16.43-20.54-21.47c-47.76-25.49-98.58-36.76-152.57-34.08
			c-7.28,0.36-9.46-1.59-9.45-8.84c0-3.94-0.02-7.89,0.01-11.83c0.05-5.96,2.1-8.37,7.98-8.53
			C15.45,338.45,23.76,338.61,32.06,338.61z"/>
		<path d="M215.54,373.66c0-13.01-0.07-24.39,0.1-35.77c0.02-1.3,1.19-2.78,2.18-3.84c14.32-15.31,31.94-25.67,51.1-33.59
			c32.17-13.29,65.93-19.68,100.44-22.67c8.69-0.75,17.41-1.25,26.12-1.54c6.72-0.23,10.08,5.21,6.94,11.13
			c-0.49,0.92-2.48,1.31-3.83,1.45c-16.63,1.75-33.28,3.31-49.88,5.23c-2.24,0.26-4.94,1.74-6.22,3.52
			c-0.97,1.35-0.85,4.81,0.24,6.01c1.41,1.56,4.37,2.7,6.49,2.47c10.62-1.15,21.16-3,31.77-4.21c6.09-0.7,12.26-0.65,19.04-0.97
			c-1.56,8.18-2.88,15.63-4.54,23c-0.19,0.83-2.29,1.67-3.55,1.74c-13.34,0.76-26.76,0.74-40.03,2.11
			c-45.68,4.72-88.69,17.68-127.57,42.84C222.06,372.04,219.11,372.44,215.54,373.66z M320.55,305.47
			c-0.37,3.24,2.26,6.34,5.59,6.62c3.82,0.31,7.55-2.46,7.97-5.92c0.38-3.12-1.97-6.07-5.17-6.49
			C324.87,299.15,320.96,301.84,320.55,305.47z"/>
		<path d="M18.83,300.63c9.85,0.71,18.97,1.13,28.04,2.08c7.4,0.78,14.75,2.15,22.11,3.34c4.61,0.74,7.77-0.97,8.43-4.74
			c0.59-3.36-1.75-6.57-6.16-7.09c-16.47-1.94-32.96-3.72-49.47-5.27c-5.54-0.52-6.02-0.52-6.22-5.82
			c-0.16-4.18,2.28-6.93,6.72-6.87c6.89,0.09,13.8,0.33,20.67,0.87c25.43,2.02,50.62,5.65,75.24,12.51
			c27.46,7.65,53.42,18.28,75.54,37.03c6.94,5.89,10.85,12.03,9.78,21.54c-0.88,7.9-0.18,15.97-0.18,25.23
			c-3.28-0.97-6.16-1.16-8.27-2.53c-30.37-19.82-63.7-32.03-99.12-38.97c-22.59-4.43-45.41-6.39-68.41-6.19
			c-3.26,0.03-4.4-1.12-4.88-4.11C21.6,315,20.27,308.39,18.83,300.63z M98.37,306.08c-0.04-3.58-3.3-6.4-7.42-6.44
			c-3.52-0.03-6.25,2.57-6.22,5.93c0.03,3.51,3.38,6.47,7.4,6.55C95.45,312.18,98.41,309.32,98.37,306.08z"/>
	</g>
	<g>
		<path d="M117.66,9.61c0,0,8.82,25.02,31.4,59.09c25.51,38.48-61.07-29.55-61.07-29.55S73.69,18.98,80.57,4.97
			C86.2-6.49,117.66,9.61,117.66,9.61z"/>
		<path d="M300.39,8.95c0,0-9.01,25.56-32.08,60.35c-26.06,39.31,62.38-30.18,62.38-30.18s14.6-20.6,7.57-34.91
			C332.52-7.5,300.39,8.95,300.39,8.95z"/>
		<path d="M117.68,254.12c0,0,8.05-25.22,29.56-59.87c24.3-39.14-60.03,31.29-60.03,31.29s-13.65,20.55-6.38,34.31
			C86.79,271.12,117.68,254.12,117.68,254.12z"/>
		<path d="M299,253.45c0,0-7.6-24.75-28.27-58.87c-23.35-38.54,58.38,31.24,58.38,31.24s13.14,20.24,5.87,33.62
			C329.03,270.41,299,253.45,299,253.45z"/>
		<g>
			<g>
				<g>
					<path d="M275.96,51.34c4.34-7.96,7.74-14.88,10.28-20.38C266.41,16.42,242.28,7.4,216.12,6.14v22.47
						C238.64,29.93,259.3,38.21,275.96,51.34z"/>
					<path d="M258.09,80.93c5.37-8.1,10.01-15.71,14.01-22.69c-15.49-12.53-34.84-20.49-55.98-21.81v49.92
						c22.35,3,39.95,21.02,42.25,43.59h50.42c-1.1-20.48-8.43-39.31-20.11-54.63C265.53,91.33,242.44,104.53,258.09,80.93z"/>
					<path d="M313.16,57.52c-5.1,3.84-11.45,8.55-18.1,13.29c12.58,16.59,20.43,36.97,21.54,59.12h18.48c0.44,0,0.87,0.07,1.28,0.17
						v-0.17h2.71C337.95,102.81,328.48,77.84,313.16,57.52z"/>
				</g>
				<g>
					<path d="M160.7,129.93c2.33-22.75,20.19-40.88,42.8-43.66V36.43c-21.43,1.35-41.01,9.49-56.6,22.31
						c3.93,6.84,8.48,14.28,13.72,22.19c15.52,23.4-7.05,10.62-29.99-5.22c-11.5,15.25-18.7,33.92-19.8,54.22H160.7z"/>
					<path d="M203.51,28.62V6.14c-26.46,1.27-50.84,10.48-70.8,25.31c2.56,5.54,5.98,12.45,10.33,20.39
						C159.8,38.42,180.69,29.95,203.51,28.62z"/>
					<path d="M124.24,71.23c-6.61-4.7-12.96-9.4-18.11-13.28C91,78.19,81.66,103,80.55,129.93h3.99h0.8h17.69
						C104.12,107.97,111.85,87.75,124.24,71.23z"/>
				</g>
			</g>
			<g>
				<g>
					<path d="M258.28,140.76c-2.61,22.22-20.05,39.9-42.16,42.86v50.64c22.5-1.41,42.96-10.33,58.92-24.28
						c-4.6-8.33-10.2-17.74-16.94-27.91c-16.48-24.85,9.99-8.9,34.25,8.19c9.54-14.32,15.47-31.25,16.45-49.5H258.28z"/>
					<path d="M216.12,242.08v22.47c27.31-1.31,52.39-11.08,72.69-26.75c-2.18-5.05-5.47-12.17-9.99-20.78
						C261.69,231.5,239.95,240.69,216.12,242.08z"/>
					<path d="M336.36,140.76v-0.17c-0.41,0.1-0.83,0.17-1.28,0.17H316.6c-0.99,19.94-7.45,38.44-17.91,54.04
						c6.94,5.01,13.34,9.82,18.04,13.4c13.21-19.36,21.31-42.48,22.33-67.43H336.36z"/>
				</g>
				<g>
					<path d="M143.98,209.45c16.04,14.26,36.74,23.39,59.52,24.82V183.7c-22.37-2.74-40.08-20.53-42.71-42.93h-49.96
						c0.97,18.07,6.79,34.84,16.16,49.07c24.09-16.92,49.96-32.39,33.63-7.75C154.03,192.03,148.53,201.25,143.98,209.45z"/>
					<path d="M140.18,216.48c-4.51,8.56-7.82,15.67-10.04,20.79c20.42,15.98,45.76,25.95,73.37,27.28v-22.48
						C179.38,240.68,157.4,231.28,140.18,216.48z"/>
					<path d="M103.03,140.76H85.34h-0.8h-3.98c1.02,24.76,8.99,47.72,22.02,66.98c4.78-3.64,11.18-8.43,18.06-13.39
						C110.36,178.85,104.01,160.51,103.03,140.76z"/>
				</g>
			</g>
		</g>
		<circle cx="209.81" cy="135.35" r="24.19"/>
	</g>
</g>
</svg>
